<svg xmlns="http://www.w3.org/2000/svg" version="1.1" xmlns:xlink="http://www.w3.org/1999/xlink" xmlns:svgjs="http://svgjs.dev/svgjs" width="300" height="300" preserveAspectRatio="none" viewBox="0 0 300 300"><g mask="url(&quot;#SvgjsMask2325&quot;)" fill="none"><rect width="300" height="300" x="0" y="0" fill="rgba(24, 24, 27, 1)"></rect><path d="M157.86 338.77C185.34 303.12 165.66 168.78 209.39 166.25 253.13 163.72 278.79 250.22 312.46 256.25" stroke="rgba(51, 121, 194, 0)" stroke-width="2"></path><path d="M118.93 333.41C154.36 310.47 135.69 185.27 198.13 184.31 260.57 183.35 313.05 254.65 356.52 256.31" stroke="rgba(51, 121, 194, 0)" stroke-width="2"></path><path d="M142.08 337.55C180.93 318.53 185.08 193.87 236.05 192.27 287.03 190.67 301.5 255.08 330.03 258.27" stroke="rgba(51, 121, 194, 0)" stroke-width="2"></path><path d="M148.16 332.29C180.82 295.44 157.54 148.95 211.29 145.73 265.03 142.51 299.81 226.01 337.54 229.73" stroke="rgba(51, 121, 194, 0)" stroke-width="2"></path><path d="M88.04 339.78C131.13 329.2 128.41 230.37 211.96 212.71 295.52 195.05 295.43 111.92 335.89 104.71" stroke="rgba(51, 121, 194, 0)" stroke-width="2"></path></g><defs><mask id="SvgjsMask2325"><rect width="300" height="300" fill="#ffffff"></rect></mask></defs></svg>
