<?xml version="1.0" standalone="no"?>
<!DOCTYPE svg PUBLIC "-//W3C//DTD SVG 20010904//EN"
 "http://www.w3.org/TR/2001/REC-SVG-20010904/DTD/svg10.dtd">
<svg version="1.0" xmlns="http://www.w3.org/2000/svg"
 width="700.000000pt" height="700.000000pt" viewBox="0 0 700.000000 700.000000"
 preserveAspectRatio="xMidYMid meet">
<metadata>
Created by potrace 1.14, written by Peter Selinger 2001-2017
</metadata>
<g transform="translate(0.000000,700.000000) scale(0.100000,-0.100000)"
fill="#000000" stroke="none">
<path d="M1220 6993 c-325 -52 -571 -170 -788 -377 -209 -200 -347 -449 -409
-738 -17 -79 -18 -206 -18 -2373 0 -2170 1 -2294 18 -2374 43 -197 111 -362
216 -517 222 -331 588 -556 983 -604 67 -8 717 -10 2343 -8 l2250 4 85 21
c290 72 515 198 706 395 186 191 313 430 371 700 17 79 18 207 18 2378 0 2201
-1 2298 -19 2380 -61 280 -188 513 -385 711 -196 195 -411 313 -706 386 -65
16 -228 17 -2355 19 -1257 1 -2296 0 -2310 -3z m3474 -1398 l1 -220 -33 -95
c-54 -154 -154 -318 -272 -443 -59 -64 -311 -313 -336 -333 -19 -15 -19 -15 1
-10 82 22 280 72 380 96 384 92 485 120 598 167 32 13 63 21 70 17 7 -4 9 -4
5 1 -4 4 30 25 75 47 45 22 97 51 115 64 17 14 37 22 42 19 6 -4 9 -3 8 2 -2
4 -1 9 2 9 9 3 115 109 114 114 -1 3 13 16 30 30 l31 25 -35 -45 c-54 -69
-185 -198 -290 -283 -169 -138 -361 -257 -617 -383 -390 -192 -404 -198 -518
-259 -111 -59 -303 -177 -407 -250 -129 -91 -158 -110 -168 -107 -5 1 -9 -2
-8 -7 3 -9 -48 -53 -197 -172 -49 -40 -127 -108 -227 -201 -28 -26 -53 -46
-57 -45 -3 1 -8 -2 -9 -8 -2 -5 -59 -66 -126 -135 -233 -239 -383 -444 -458
-623 -25 -61 -31 -93 -40 -217 -6 -80 -9 -172 -8 -205 5 -173 103 -426 248
-645 59 -88 115 -153 242 -281 163 -165 285 -265 445 -365 107 -67 667 -344
696 -344 7 0 10 -2 7 -5 -7 -7 -214 53 -308 88 -142 54 -392 179 -633 316
-156 89 -406 239 -439 263 -17 13 -59 43 -94 68 -60 43 -125 94 -208 163 -21
18 -61 49 -90 70 -115 87 -365 329 -439 427 -23 30 -50 61 -60 68 -22 17 -177
253 -239 365 -71 129 -130 328 -168 570 -30 187 20 611 114 972 53 203 67 346
55 570 -9 181 -23 247 -91 452 -40 120 -67 182 -114 258 -63 106 -186 277
-237 332 -16 17 -26 36 -22 42 3 6 2 10 -3 9 -6 -2 -10 1 -11 5 0 4 -15 20
-33 34 -63 51 -232 228 -178 186 8 -6 56 -29 105 -51 321 -142 456 -205 451
-210 -2 -2 -36 10 -74 27 -39 17 -75 31 -81 31 -6 0 -11 4 -11 8 0 5 -6 9 -12
9 -7 1 -38 7 -69 14 -91 20 -107 -1 -51 -66 12 -14 20 -31 16 -37 -4 -6 -3 -8
3 -5 5 3 23 -6 39 -21 29 -26 148 -169 189 -226 11 -15 33 -44 48 -64 32 -41
122 -188 149 -242 42 -83 107 -275 145 -425 25 -98 28 -126 27 -265 -1 -120
-6 -179 -23 -260 -37 -173 -60 -299 -70 -394 -16 -139 -21 -297 -12 -341 7
-31 9 -34 11 -15 1 14 2 36 1 50 -1 19 1 22 8 10 5 -8 11 -37 12 -65 4 -44 2
-50 -15 -47 -10 2 -16 -2 -14 -8 2 -6 7 -11 12 -10 5 1 13 -5 18 -13 10 -19
48 -10 49 12 1 9 8 -7 18 -34 10 -32 29 -63 50 -82 34 -29 34 -31 13 -37 -20
-7 -33 -28 -14 -24 20 4 61 -24 73 -51 8 -17 18 -31 23 -31 4 0 6 -6 3 -14 -3
-8 4 -19 17 -26 13 -6 29 -26 37 -43 9 -20 20 -31 30 -29 13 2 18 -11 24 -60
5 -35 7 -69 6 -76 -3 -19 30 -54 45 -48 6 2 11 -1 11 -7 0 -7 1 -21 2 -32 1
-17 3 -18 11 -5 8 12 10 9 10 -12 0 -20 4 -26 15 -22 9 4 15 0 15 -10 0 -9 -7
-16 -15 -16 -13 0 -13 -3 -3 -20 16 -26 28 -26 28 0 0 11 4 20 10 20 5 0 8 -6
6 -13 -3 -6 -7 -38 -10 -70 -7 -67 8 -71 17 -5 13 104 49 280 73 358 14 47 32
110 40 140 8 30 19 64 24 75 4 11 22 58 39 105 16 47 60 150 96 229 126 273
167 445 169 696 0 149 -2 170 -33 295 -67 276 -115 392 -218 534 -15 22 -32
46 -38 55 -5 9 -37 44 -70 79 -33 35 -59 68 -57 74 1 5 -2 7 -7 4 -5 -4 -16 2
-23 13 -12 17 -52 52 -123 108 -43 34 -22 39 22 7 301 -223 497 -490 558 -759
53 -234 57 -522 10 -689 -13 -49 -23 -91 -21 -93 2 -2 19 29 37 69 19 40 76
158 128 263 82 168 181 398 181 422 0 5 8 27 19 49 24 51 85 254 111 374 29
129 42 328 31 465 -12 141 -37 305 -57 374 -21 72 -12 75 15 4 79 -216 95
-528 47 -897 -29 -217 -30 -240 -17 -232 5 3 9 27 9 53 1 29 7 53 18 62 15 15
15 13 9 -28 -32 -198 -164 -559 -252 -691 -12 -19 -23 -44 -23 -56 0 -12 -6
-24 -13 -27 -14 -5 -131 -234 -142 -277 -4 -14 -13 -40 -22 -58 -8 -19 -12
-43 -10 -54 3 -11 3 -17 0 -14 -11 11 -30 -61 -27 -100 1 -22 -3 -43 -12 -51
-8 -8 -12 -18 -9 -23 2 -4 -7 -29 -20 -55 -16 -29 -23 -55 -19 -67 4 -14 2
-18 -5 -14 -6 4 -11 0 -11 -10 0 -9 -14 -47 -31 -83 -35 -73 -82 -251 -76
-284 3 -18 6 -15 21 18 9 22 21 49 26 60 5 11 21 46 34 78 14 32 55 107 91
166 36 60 65 112 65 116 0 38 324 454 419 539 13 12 38 40 56 63 18 23 35 40
39 36 3 -3 6 0 6 7 0 14 252 266 310 309 17 14 53 45 79 70 64 62 199 182 225
201 12 8 31 25 44 39 12 13 22 20 22 15 0 -5 10 6 21 24 12 17 24 32 28 32 8
0 285 277 343 342 51 58 111 136 159 210 24 37 54 82 66 100 65 100 133 211
133 219 0 5 5 9 12 9 6 0 8 3 5 7 -4 3 -3 11 2 17 14 18 51 125 66 191 8 34
15 113 16 176 l2 114 15 -50 c11 -37 15 -106 16 -270z m-3234 -130 c14 -8 21
-14 15 -14 -5 0 -21 6 -35 14 -14 8 -20 14 -15 14 6 0 21 -6 35 -14z m106 -51
c18 -14 18 -14 -6 -3 -31 14 -36 19 -24 19 6 0 19 -7 30 -16z m247 -134 c11 0
98 -62 94 -67 -8 -7 -130 72 -135 87 -4 11 0 11 15 -2 11 -10 22 -18 26 -18z
m3741 -164 c-3 -8 -13 -17 -22 -21 -13 -5 -13 -2 3 15 21 24 26 25 19 6z
m-2497 -308 c-3 -7 -5 -2 -5 12 0 14 2 19 5 13 2 -7 2 -19 0 -25z m10 -60 c-3
-8 -6 -5 -6 6 -1 11 2 17 5 13 3 -3 4 -12 1 -19z m-30 -40 c-3 -8 -6 -5 -6 6
-1 11 2 17 5 13 3 -3 4 -12 1 -19z m20 -30 c-3 -7 -5 -2 -5 12 0 14 2 19 5 13
2 -7 2 -19 0 -25z m-30 -20 c-3 -8 -6 -5 -6 6 -1 11 2 17 5 13 3 -3 4 -12 1
-19z m-437 -1268 c0 -5 -4 -10 -10 -10 -5 0 -10 5 -10 10 0 6 5 10 10 10 6 0
10 -4 10 -10z m-920 -191 c0 -12 -7 -19 -20 -19 -17 0 -18 3 -8 25 12 27 28
24 28 -6z m1951 -219 c225 -22 600 -113 804 -195 61 -24 138 -54 172 -66 34
-13 59 -28 56 -33 -3 -5 -1 -6 4 -3 14 9 302 -136 420 -210 144 -91 284 -194
278 -204 -4 -5 0 -9 8 -9 8 0 22 -10 33 -21 19 -22 19 -22 -9 -17 -15 3 -25 3
-22 0 9 -9 -27 -42 -46 -42 -10 0 -21 -4 -24 -10 -3 -5 -12 -10 -18 -10 -8 0
-8 3 -2 8 6 4 17 16 25 27 14 19 14 19 -2 6 -10 -7 -27 -11 -39 -8 -17 5 -18
3 -7 -10 12 -15 11 -15 -9 -4 -13 6 -23 16 -23 22 0 6 -5 7 -10 4 -6 -3 -13 1
-16 9 -3 9 -11 16 -18 16 -18 1 -58 38 -52 49 4 5 -3 7 -16 3 -16 -4 -19 -2
-13 9 7 11 5 11 -11 -1 -10 -8 -16 -11 -12 -6 8 10 -15 36 -32 36 -7 0 -24 8
-38 18 -146 101 -420 242 -597 306 -55 20 -126 48 -157 61 -104 44 -407 110
-628 137 -137 16 -477 4 -587 -21 -200 -46 -339 -114 -465 -229 -55 -51 -56
-52 -54 -24 2 34 70 126 132 178 91 77 136 103 330 190 105 47 406 67 645 44z
m-1581 -420 c0 -5 -2 -10 -4 -10 -3 0 -8 5 -11 10 -3 6 -1 10 4 10 6 0 11 -4
11 -10z m1995 -2070 c3 -6 -1 -7 -9 -4 -18 7 -21 14 -7 14 6 0 13 -4 16 -10z
m50 -10 c13 -6 15 -9 5 -9 -8 0 -22 4 -30 9 -18 12 -2 12 25 0z"/>
<path d="M1610 2904 c0 -8 5 -12 10 -9 6 4 8 11 5 16 -9 14 -15 11 -15 -7z"/>
</g>
</svg>
